<?xml version="1.0" encoding="UTF-8" standalone="no"?>
<!-- Created with Inkscape (http://www.inkscape.org/) -->

<svg
   version="1.1"
   id="svg1"
   width="512"
   height="512"
   viewBox="0 0 512 512"
   xmlns="http://www.w3.org/2000/svg"
   xmlns:svg="http://www.w3.org/2000/svg">
  <defs
     id="defs1" />
  <g
     id="g1"
     transform="translate(-160.28478,-29.404529)">
    <path
       style="fill:#ec3f3f;fill-opacity:1;stroke:none;stroke-width:0.76921"
       d="m 405.11622,509.17574 c -47.214,-2.37414 -92.9222,-19.71681 -129.42526,-49.10672 -7.57715,-6.10063 -17.69003,-15.2872 -18.06137,-16.407 -0.58871,-1.77531 -0.65649,-1.68972 8.95569,-11.3075 7.90626,-7.91087 8.95866,-8.88702 9.5766,-8.88276 0.85192,0.006 1.43667,0.60509 1.43667,1.47219 0,0.55727 -1.08367,1.72978 -7.53242,8.14988 l -7.53242,7.49894 3.10239,2.90935 c 2.91997,2.7383 5.6928,5.23017 9.04942,8.13256 2.56051,2.214 9.70156,7.82035 12.99137,10.19937 29.45119,21.29758 63.39646,34.87761 99.38274,39.75874 21.96451,2.97924 44.74623,2.60195 66.50657,-1.1014 15.30757,-2.60518 30.73261,-6.94127 44.8611,-12.6108 6.92108,-2.77731 10.35227,-4.32992 17.27153,-7.81536 15.854,-7.98613 30.15055,-17.49753 43.62741,-29.02506 3.26683,-2.7943 9.86945,-8.82687 9.86945,-9.01736 0,-0.072 -70.30925,-70.09821 -156.24276,-155.61411 -85.93352,-85.5159 -156.3374,-155.65266 -156.45308,-155.85945 -0.11567,-0.20679 -0.21236,-0.80953 -0.21485,-1.33941 -0.005,-0.94974 0.0444,-1.01107 3.42978,-4.31198 16.42012,-16.01011 35.49559,-29.515396 56.24001,-39.817521 14.29154,-7.097489 27.47682,-12.089264 42.49896,-16.089567 69.70157,-18.561086 144.83738,-2.573501 200.19957,42.598968 7.62867,6.22457 15.58983,13.56419 16.33694,15.06147 1.03467,2.07359 1.35831,1.64349 -8.94691,11.88984 -5.04863,5.01981 -9.41867,9.2167 -9.71117,9.32642 -1.24885,0.46845 -2.19525,-0.39943 -1.86072,-1.70635 0.0707,-0.27625 3.66028,-4.01028 7.97682,-8.2978 l 7.84825,-7.79554 -0.6771,-0.76748 C 567.58052,126.98918 558.7926,119.20567 553.27,114.81952 529.5865,96.009679 502.30576,82.323083 473.08078,74.589027 444.3618,66.988881 414.45854,65.282974 384.85503,69.55597 c -28.42231,4.102499 -55.65017,13.732632 -80.46425,28.459144 -10.56062,6.267466 -22.20294,14.669666 -31.41001,22.668466 -3.65207,3.1728 -9.28893,8.4395 -9.28905,8.67906 -6e-5,0.12282 70.25427,70.14091 156.12073,155.59578 133.56877,132.9285 156.15473,155.49649 156.35537,156.23104 0.32486,1.18927 0.0219,1.91676 -1.53142,3.67836 -1.41915,1.60936 -7.23336,6.99924 -11.27266,10.44996 -14.43816,12.33437 -30.27631,22.77747 -46.99199,30.98485 -25.66342,12.60068 -53.46781,20.23124 -81.75936,22.43778 -8.71051,0.67936 -21.02791,0.86115 -29.49617,0.43533 z M 283.95958,417.10308 c -0.94619,-0.94168 -0.32055,-2.33275 1.04916,-2.33275 1.25559,0 1.86084,1.84238 0.83921,2.55455 -0.7082,0.49369 -1.23117,0.43227 -1.88837,-0.2218 z m 8.89625,-8.53485 c -0.35839,-0.28883 -0.52788,-0.65842 -0.52788,-1.15114 0,-0.65648 0.75838,-1.47961 7.95066,-8.62938 6.99162,-6.95032 8.03362,-7.90368 8.63838,-7.90368 0.84608,0 1.43016,0.60027 1.43016,1.4698 0,0.56132 -1.11318,1.75928 -7.90676,8.50888 -4.8738,4.84224 -8.12732,7.9084 -8.48171,7.99326 -0.39121,0.0936 -0.74366,0.002 -1.10285,-0.28774 z m 23.85235,-24.05767 c -0.94618,-0.94168 -0.32055,-2.33275 1.04916,-2.33275 1.2556,0 1.86084,1.84239 0.83921,2.55456 -0.70822,0.49368 -1.23117,0.43226 -1.88837,-0.22181 z m 8.89626,-8.53485 c -0.3584,-0.28882 -0.5279,-0.65842 -0.5279,-1.15112 0,-0.65649 0.75839,-1.47962 7.95066,-8.62941 6.99163,-6.95029 8.03362,-7.90367 8.63839,-7.90367 0.84607,0 1.43017,0.60028 1.43017,1.46981 0,0.56133 -1.11318,1.75927 -7.90677,8.50888 -4.8738,4.84224 -8.12731,7.90838 -8.48172,7.99327 -0.39119,0.0937 -0.74365,0.002 -1.10283,-0.28776 z m 24.00069,-23.88628 c -0.66224,-0.53371 -0.72394,-1.75495 -0.11118,-2.20087 0.56001,-0.40755 1.56399,-0.38366 1.99724,0.0477 0.42166,0.41965 0.46682,1.73244 0.0709,2.05951 -0.59341,0.49014 -1.41616,0.52958 -1.95691,0.0938 z m 9.02052,-8.54175 c -0.73439,-0.29063 -1.02818,-1.20447 -0.62875,-1.95563 0.17587,-0.33074 3.78745,-4.04198 8.0257,-8.24721 6.7633,-6.71057 7.78993,-7.64584 8.39261,-7.64584 0.84501,0 1.42915,0.60075 1.42915,1.46979 0,0.56151 -1.11108,1.7559 -7.90677,8.49969 -4.34872,4.3155 -8.10864,7.89897 -8.35538,7.96328 -0.24673,0.0643 -0.67719,0.0265 -0.95656,-0.084 z m 23.72807,-24.05077 c -0.66225,-0.5337 -0.72392,-1.75494 -0.11117,-2.20088 0.56002,-0.40754 1.56398,-0.38364 1.99724,0.0476 0.42166,0.41965 0.46682,1.73246 0.0709,2.05952 -0.59342,0.49014 -1.41618,0.52959 -1.95691,0.0937 z m 9.02052,-8.54175 c -0.73437,-0.29062 -1.02817,-1.20445 -0.62874,-1.95563 0.17588,-0.33074 3.78744,-4.04198 8.0257,-8.24719 6.85261,-6.79919 7.78404,-7.64585 8.41136,-7.64585 0.90075,0 1.41039,0.51035 1.41039,1.41234 0,0.63702 -0.82035,1.52486 -7.90676,8.55713 -4.34873,4.3155 -8.10865,7.89897 -8.35539,7.96329 -0.24673,0.0643 -0.67718,0.0265 -0.95656,-0.0841 z m 32.86098,-32.51606 c -0.21758,-0.055 -0.54822,-0.39386 -0.73476,-0.75288 -0.29816,-0.57383 -0.29972,-0.72697 -0.0129,-1.26666 0.17946,-0.33764 3.79395,-4.05452 8.03221,-8.25973 6.85261,-6.79919 7.78404,-7.64586 8.41136,-7.64586 0.90074,0 1.4104,0.51036 1.4104,1.41236 0,0.637 -0.82036,1.52484 -7.90678,8.55711 -4.34872,4.3155 -8.10864,7.89349 -8.35537,7.95107 -0.24674,0.0575 -0.62663,0.0596 -0.84419,0.005 z m 23.88832,-23.96067 c -1.11445,-0.44558 -1.04426,-2.30334 0.0978,-2.58861 1.29028,-0.32229 2.28435,0.68918 1.84335,1.87566 -0.14321,0.38529 -1.1049,1.02806 -1.39172,0.9302 -0.0228,-0.008 -0.27006,-0.10554 -0.54942,-0.21725 z m 8.77926,-8.69675 c -0.75785,-0.30129 -1.02596,-1.37754 -0.53622,-2.15246 0.22221,-0.35162 3.82491,-4.02971 8.006,-8.17354 6.58038,-6.52175 7.69136,-7.53376 8.26723,-7.5308 0.36591,0.002 0.78514,0.0792 0.93163,0.17197 0.41823,0.26467 0.70349,1.231 0.50836,1.72211 -0.25486,0.64142 -15.71468,15.89526 -16.25179,16.03526 -0.24673,0.0643 -0.66309,0.0317 -0.92521,-0.0726 z m 23.96934,-23.89576 c -1.11444,-0.44559 -1.04426,-2.30335 0.0978,-2.58862 1.29029,-0.3223 2.28435,0.68919 1.84335,1.87566 -0.1432,0.38528 -1.1049,1.02805 -1.39172,0.9302 -0.0228,-0.008 -0.27005,-0.10554 -0.54942,-0.21724 z m 8.75788,-8.70463 c -0.55178,-0.21866 -0.85345,-1.06287 -0.65576,-1.83513 0.0707,-0.27627 3.64305,-3.99315 7.93852,-8.25976 6.76974,-6.72425 7.89857,-7.757 8.47542,-7.75404 0.36602,0.002 0.78535,0.0793 0.93184,0.17196 0.41824,0.26469 0.7035,1.23101 0.50835,1.72213 -0.25485,0.64142 -15.71468,15.89524 -16.25178,16.03524 -0.24674,0.0643 -0.6727,0.0282 -0.94659,-0.0804 z m 24.10308,-23.81096 c -0.21757,-0.0564 -0.54568,-0.39155 -0.72913,-0.74462 -0.62058,-1.19434 0.36397,-2.26942 1.75917,-1.92092 1.18397,0.29574 1.2039,2.15578 0.0278,2.60077 -0.31867,0.12058 -0.59805,0.20759 -0.62086,0.19334 -0.0228,-0.0143 -0.21949,-0.0721 -0.43707,-0.12857 z m 8.69489,-8.82033 c -0.61987,-0.34732 -0.77765,-0.62957 -0.78163,-1.3983 -0.003,-0.5741 1.03471,-1.69754 7.79117,-8.43504 4.28705,-4.27499 8.02174,-7.8303 8.29931,-7.90067 1.24201,-0.31491 2.27528,0.70775 1.83799,1.81911 -0.24818,0.6307 -15.70604,15.89079 -16.24961,16.0417 -0.24674,0.0686 -0.6505,0.0115 -0.89723,-0.1268 z m 24.03745,-23.77531 c -0.59465,-0.15275 -1.05783,-1.35849 -0.7664,-1.99507 0.24706,-0.53967 1.15117,-0.94278 1.79814,-0.80174 0.61999,0.13515 1.10438,1.2528 0.84136,1.9413 -0.16944,0.44354 -1.17296,1.14131 -1.41978,0.98721 -0.0228,-0.0143 -0.22681,-0.0735 -0.45332,-0.1317 z"
       id="path1" />
  </g>
</svg>
